
<svg width="512" height="512" viewBox="0 0 512 512" fill="none" xmlns="http://www.w3.org/2000/svg">
  <circle cx="256" cy="256" r="250" stroke="#00FFFF" stroke-width="10"/>
  <path d="M160 160 C160 120, 240 120, 240 160 S240 240, 160 240" stroke="#00FFFF" stroke-width="8" fill="none"/>
  <path d="M352 160 C352 120, 272 120, 272 160 S272 240, 352 240" stroke="#00FFFF" stroke-width="8" fill="none"/>
  <line x1="180" y1="200" x2="332" y2="200" stroke="#00FFFF" stroke-width="6"/>
  <line x1="256" y1="200" x2="256" y2="300" stroke="#00FFFF" stroke-width="6"/>
  <line x1="240" y1="200" x2="240" y2="280" stroke="#00FFFF" stroke-width="4"/>
  <line x1="272" y1="200" x2="272" y2="280" stroke="#00FFFF" stroke-width="4"/>
  <circle cx="180" cy="200" r="8" fill="#00FFFF"/>
  <circle cx="332" cy="200" r="8" fill="#00FFFF"/>
  <circle cx="256" cy="300" r="8" fill="#00FFFF"/>
  <circle cx="240" cy="280" r="6" fill="#00FFFF"/>
  <circle cx="272" cy="280" r="6" fill="#00FFFF"/>
  <text x="50%" y="390" font-family="Arial, sans-serif" font-size="40" fill="#00FFFF" text-anchor="middle" font-weight="bold">LOGIC</text>
  <text x="50%" y="440" font-family="Arial, sans-serif" font-size="40" fill="#00FFFF" text-anchor="middle" font-weight="bold">LOOMS</text>
</svg>
